<?xml version="1.0" encoding="UTF-8"?>
<svg xmlns="http://www.w3.org/2000/svg" viewBox="0 0 320 320">
  <defs>
    <style>
      .uuid-a8786656-d5a7-47d8-a032-a89ba18cae6f {
        fill: #fff;
      }
    </style>
  </defs>
  <g id="uuid-1748e4cf-18cd-498b-a8ef-1a03c84c5f30" data-name="레이어 3">
    <circle class="uuid-a8786656-d5a7-47d8-a032-a89ba18cae6f" cx="160" cy="160" r="160"/>
  </g>
  <g id="uuid-154b86e0-013d-4c67-8866-bcde1a24958e" data-name="레이어 1">
    <path d="M160,125.09c-25.98,0-47.11-21.13-47.11-47.11s21.13-47.11,47.11-47.11,47.11,21.13,47.11,47.11-21.13,47.11-47.11,47.11ZM160,46.83c-17.18,0-31.16,13.98-31.16,31.16s13.98,31.16,31.16,31.16,31.16-13.98,31.16-31.16-13.98-31.16-31.16-31.16Z"/>
    <path d="M151.56,138.12c-13.01,0-23.56,11.48-23.56,25.65,0-14.16-10.55-25.65-23.56-25.65s-23.56,11.48-23.56,25.65c0,24.78,23.61,41.58,47.11,58.39,23.51-16.81,47.11-33.62,47.11-58.39,0-14.16-10.55-25.65-23.56-25.65Z"/>
    <path d="M241.34,272h-100.37l50.18-87.41,50.19,87.41ZM166.41,257.27h49.49l-24.75-43.1-24.75,43.1Z"/>
  </g>
</svg>